<?xml version="1.0" encoding="UTF-8"?>
<!DOCTYPE svg PUBLIC "-//W3C//DTD SVG 1.1//EN" "http://www.w3.org/Graphics/SVG/1.1/DTD/svg11.dtd">
<svg xmlns="http://www.w3.org/2000/svg" version="1.1" width="5680px" height="2022px" style="shape-rendering:geometricPrecision; text-rendering:geometricPrecision; image-rendering:optimizeQuality; fill-rule:evenodd; clip-rule:evenodd" xmlns:xlink="http://www.w3.org/1999/xlink">
<g><path style="opacity:0.995" fill="#fefffe" d="M 350.5,181.5 C 405.769,177.386 448.269,198.386 478,244.5C 498.664,283.062 500.997,322.728 485,363.5C 460.614,412.517 420.947,438.184 366,440.5C 317.033,439.03 279.7,417.697 254,376.5C 231.435,334.17 230.768,291.504 252,248.5C 274.168,210.5 307.002,188.167 350.5,181.5 Z"/></g>
<g><path style="opacity:0.998" fill="#fefffe" d="M 354.5,517.5 C 408.862,515.093 450.362,536.76 479,582.5C 487.339,597.849 492.672,614.182 495,631.5C 495.667,996.167 495.667,1360.83 495,1725.5C 486.827,1778.67 457.66,1814.83 407.5,1834C 358.99,1848.04 315.657,1838.7 277.5,1806C 253.988,1783.14 240.488,1755.31 237,1722.5C 236.333,1360.17 236.333,997.833 237,635.5C 244.897,577.943 276.397,540.109 331.5,522C 339.263,520.266 346.929,518.766 354.5,517.5 Z"/></g>
<g><path style="opacity:0.998" fill="#fefffe" d="M 1273.5,517.5 C 1461.41,513.386 1623.41,575.22 1759.5,703C 1888.05,830.181 1955.22,984.681 1961,1166.5C 1961.67,1347.83 1961.67,1529.17 1961,1710.5C 1957.33,1765.72 1930.83,1805.55 1881.5,1830C 1822.42,1851.66 1771.59,1839.49 1729,1793.5C 1712.18,1772.5 1702.51,1748.5 1700,1721.5C 1699.98,1532.49 1699.31,1343.49 1698,1154.5C 1684.76,1038.84 1633.93,943.672 1545.5,869C 1436.86,782.739 1315.52,758.739 1181.5,797C 1059.58,837.588 974.411,917.422 926,1036.5C 912.306,1072.97 903.972,1110.64 901,1149.5C 899.692,1339.82 899.025,1530.16 899,1720.5C 892.299,1770.11 866.799,1806.28 822.5,1829C 770.115,1849.77 722.448,1842.1 679.5,1806C 656.283,1783.4 642.783,1755.9 639,1723.5C 638.333,1530.83 638.333,1338.17 639,1145.5C 651.811,953.713 730.644,795.547 875.5,671C 990.983,576.322 1123.65,525.155 1273.5,517.5 Z"/></g>
<g><path style="opacity:0.998" fill="#fefffe" d="M 2221.5,517.5 C 2283.03,515.607 2326.86,542.273 2353,597.5C 2357.73,609.404 2360.73,621.737 2362,634.5C 2362.33,717.5 2362.67,800.5 2363,883.5C 2366,894.163 2373,900.163 2384,901.5C 2388.48,900.996 2392.65,899.496 2396.5,897C 2574.5,777 2752.5,657 2930.5,537C 2962.55,519.652 2996.22,515.652 3031.5,525C 3081.17,541.493 3111.67,575.326 3123,626.5C 3130.08,675.141 3115.58,715.974 3079.5,749C 2900.44,869.725 2721.11,990.059 2541.5,1110C 2536.38,1113.45 2531.55,1117.29 2527,1121.5C 2520.39,1132.2 2521.55,1142.04 2530.5,1151C 2712.83,1304 2895.17,1457 3077.5,1610C 3115.09,1644.09 3129.59,1686.25 3121,1736.5C 3106.55,1792.94 3070.72,1826.78 3013.5,1838C 2974.03,1843.17 2939.03,1833.17 2908.5,1808C 2739.5,1665.67 2570.5,1523.33 2401.5,1381C 2391.92,1372.23 2381.58,1371.23 2370.5,1378C 2366.74,1381.42 2364.24,1385.59 2363,1390.5C 2362.67,1501.5 2362.33,1612.5 2362,1723.5C 2355.74,1773.4 2329.91,1808.9 2284.5,1830C 2227.35,1850.97 2177.51,1839.8 2135,1796.5C 2117.71,1775.99 2107.38,1752.32 2104,1725.5C 2103.33,1361.17 2103.33,996.833 2104,632.5C 2111.28,582.74 2137.78,547.573 2183.5,527C 2195.9,522.233 2208.57,519.066 2221.5,517.5 Z"/></g>
<g><path style="opacity:0.998" fill="#fefffe" d="M 3384.5,517.5 C 3448.05,515.607 3492.55,543.607 3518,601.5C 3521.43,610.902 3523.77,620.568 3525,630.5C 3525.33,937.167 3525.67,1243.83 3526,1550.5C 3527.91,1567.74 3537.41,1577.91 3554.5,1581C 3716.83,1581.33 3879.17,1581.67 4041.5,1582C 4099.08,1591.58 4135.91,1624.41 4152,1680.5C 4163.11,1741.56 4142.94,1789.06 4091.5,1823C 4074.41,1832.7 4056.08,1838.36 4036.5,1840C 3819.5,1840.67 3602.5,1840.67 3385.5,1840C 3340.42,1834.9 3306.26,1813.06 3283,1774.5C 3273.94,1757.61 3268.61,1739.61 3267,1720.5C 3266.33,1359.5 3266.33,998.5 3267,637.5C 3272.65,586.548 3298.48,550.048 3344.5,528C 3357.5,522.712 3370.84,519.212 3384.5,517.5 Z"/></g>
<g><path style="opacity:0.998" fill="#fefffe" d="M 4761.5,519.5 C 4964.59,516.67 5135.09,589.003 5273,736.5C 5391.44,870.529 5447.77,1027.53 5442,1207.5C 5431.11,1389.07 5359.61,1541.57 5227.5,1665C 5072.78,1800.55 4892.78,1855.22 4687.5,1829C 4532.28,1803.66 4401.78,1733.49 4296,1618.5C 4161.79,1464.82 4107.46,1286.15 4133,1082.5C 4165,888.536 4261.83,736.702 4423.5,627C 4526.35,560.615 4639.01,524.782 4761.5,519.5 Z M 4756.5,780.5 C 4905.03,775.19 5023.2,831.857 5111,950.5C 5174.97,1045.7 5195.64,1149.7 5173,1262.5C 5141.57,1389.24 5067.4,1481.41 4950.5,1539C 4840.65,1587.3 4730.65,1587.63 4620.5,1540C 4519.76,1491.93 4449.59,1415.76 4410,1311.5C 4371.13,1196.05 4381.13,1085.05 4440,978.5C 4502.05,876.018 4591.88,812.184 4709.5,787C 4725.24,784.298 4740.91,782.131 4756.5,780.5 Z"/></g>
</svg>
